<?xml version="1.0" encoding="UTF-8" standalone="no"?>
<svg
   width="512"
   height="512"
   version="1.1"
   id="svg118"
   xmlns="http://www.w3.org/2000/svg"
   xmlns:svg="http://www.w3.org/2000/svg">
  <defs
     id="defs92">
    <radialGradient
       id="g"
       cx="210%"
       cy="-100%"
       r="290%">
      <stop
         offset=".1"
         stop-color="#ffe226"
         id="stop2" />
      <stop
         offset=".79"
         stop-color="#ff7139"
         id="stop4" />
    </radialGradient>
    <radialGradient
       id="c"
       cx="49%"
       cy="40%"
       r="128%"
       gradientTransform="matrix(.82 0 0 1 .088 0)">
      <stop
         offset=".3"
         stop-color="#960e18"
         id="stop7" />
      <stop
         offset=".35"
         stop-color="#b11927"
         stop-opacity=".74"
         id="stop9" />
      <stop
         offset=".43"
         stop-color="#db293d"
         stop-opacity=".34"
         id="stop11" />
      <stop
         offset=".5"
         stop-color="#f5334b"
         stop-opacity=".09"
         id="stop13" />
      <stop
         offset=".53"
         stop-color="#ff3750"
         stop-opacity="0"
         id="stop15" />
    </radialGradient>
    <radialGradient
       id="d"
       cx="48%"
       cy="-12%"
       r="140%">
      <stop
         offset=".13"
         stop-color="#fff44f"
         id="stop18" />
      <stop
         offset=".53"
         stop-color="#ff980e"
         id="stop20" />
    </radialGradient>
    <radialGradient
       id="e"
       cx="22.76%"
       cy="110.11%"
       r="100%">
      <stop
         offset=".35"
         stop-color="#3a8ee6"
         id="stop23" />
      <stop
         offset=".67"
         stop-color="#9059ff"
         id="stop25" />
      <stop
         offset="1"
         stop-color="#c139e6"
         id="stop27" />
    </radialGradient>
    <radialGradient
       id="f"
       cx="52%"
       cy="33%"
       r="59%"
       gradientTransform="scale(.9 1)">
      <stop
         offset=".21"
         stop-color="#9059ff"
         stop-opacity="0"
         id="stop30" />
      <stop
         offset=".97"
         stop-color="#6e008b"
         stop-opacity=".6"
         id="stop32" />
    </radialGradient>
    <radialGradient
       id="b"
       cx="87.4%"
       cy="-12.9%"
       r="128%"
       gradientTransform="matrix(.8 0 0 1 .178 .129)">
      <stop
         offset=".13"
         stop-color="#ffbd4f"
         id="stop35" />
      <stop
         offset=".28"
         stop-color="#ff980e"
         id="stop37" />
      <stop
         offset=".47"
         stop-color="#ff3750"
         id="stop39" />
      <stop
         offset=".78"
         stop-color="#eb0878"
         id="stop41" />
      <stop
         offset=".86"
         stop-color="#e50080"
         id="stop43" />
    </radialGradient>
    <radialGradient
       id="h"
       cx="84%"
       cy="-41%"
       r="180%">
      <stop
         offset=".11"
         stop-color="#fff44f"
         id="stop46" />
      <stop
         offset=".46"
         stop-color="#ff980e"
         id="stop48" />
      <stop
         offset=".72"
         stop-color="#ff3647"
         id="stop50" />
      <stop
         offset=".9"
         stop-color="#e31587"
         id="stop52" />
    </radialGradient>
    <radialGradient
       id="i"
       cx="16.1%"
       cy="-18.6%"
       r="348.8%"
       gradientTransform="scale(1 .47) rotate(84 .279 -.297)">
      <stop
         offset="0"
         stop-color="#fff44f"
         id="stop55" />
      <stop
         offset=".3"
         stop-color="#ff980e"
         id="stop57" />
      <stop
         offset=".57"
         stop-color="#ff3647"
         id="stop59" />
      <stop
         offset=".74"
         stop-color="#e31587"
         id="stop61" />
    </radialGradient>
    <radialGradient
       id="j"
       cx="18.9%"
       cy="-42.5%"
       r="238.4%">
      <stop
         offset=".14"
         stop-color="#fff44f"
         id="stop64" />
      <stop
         offset=".48"
         stop-color="#ff980e"
         id="stop66" />
      <stop
         offset=".66"
         stop-color="#ff3647"
         id="stop68" />
      <stop
         offset=".9"
         stop-color="#e31587"
         id="stop70" />
    </radialGradient>
    <radialGradient
       id="k"
       cx="159.3%"
       cy="-44.72%"
       r="313.1%">
      <stop
         offset=".09"
         stop-color="#fff44f"
         id="stop73" />
      <stop
         offset=".63"
         stop-color="#ff980e"
         id="stop75" />
    </radialGradient>
    <linearGradient
       id="a"
       x1="87.25%"
       y1="15.5%"
       x2="9.4%"
       y2="93.1%">
      <stop
         offset=".05"
         stop-color="#fff44f"
         id="stop78" />
      <stop
         offset=".37"
         stop-color="#ff980e"
         id="stop80" />
      <stop
         offset=".53"
         stop-color="#ff3647"
         id="stop82" />
      <stop
         offset=".7"
         stop-color="#e31587"
         id="stop84" />
    </linearGradient>
    <linearGradient
       id="l"
       x1="80%"
       y1="14%"
       x2="18%"
       y2="84%">
      <stop
         offset=".17"
         stop-color="#fff44f"
         stop-opacity=".8"
         id="stop87" />
      <stop
         offset=".6"
         stop-color="#fff44f"
         stop-opacity="0"
         id="stop89" />
    </linearGradient>
  </defs>
  <path
     d="M478.711 166.353c-10.445-25.124-31.6-52.248-48.212-60.821 13.52 26.505 21.345 53.093 24.335 72.936 0 .039.015.136.047.4C427.706 111.135 381.627 83.823 344 24.355c-1.9-3.007-3.805-6.022-5.661-9.2a73.716 73.716 0 01-2.646-4.972A43.7 43.7 0 01332.1.677a.626.626 0 00-.546-.644.818.818 0 00-.451 0c-.034.012-.084.051-.12.065-.053.021-.12.069-.176.1.027-.036.083-.117.1-.136-60.37 35.356-80.85 100.761-82.732 133.484a120.249 120.249 0 00-66.142 25.488 71.355 71.355 0 00-6.225-4.7 111.338 111.338 0 01-.674-58.732c-24.688 11.241-43.89 29.01-57.85 44.7h-.111c-9.527-12.067-8.855-51.873-8.312-60.184-.114-.515-7.107 3.63-8.023 4.255a175.073 175.073 0 00-23.486 20.12 210.478 210.478 0 00-22.442 26.913c0 .012-.007.026-.011.038 0-.013.007-.026.011-.038a202.838 202.838 0 00-32.247 72.805c-.115.521-.212 1.061-.324 1.586-.452 2.116-2.08 12.7-2.365 15-.022.177-.032.347-.053.524a229.066 229.066 0 00-3.9 33.157c0 .41-.025.816-.025 1.227C16 388.418 123.6 496 256.324 496c118.865 0 217.56-86.288 236.882-199.63.407-3.076.733-6.168 1.092-9.271 4.777-41.21-.53-84.525-15.587-120.746zM201.716 354.447c1.124.537 2.18 1.124 3.334 1.639.048.033.114.07.163.1a126.191 126.191 0 01-3.497-1.739zm55.053-144.93zm198.131-30.59l-.032-.233c.012.085.027.174.04.259z"
     fill="url(#a)"
     id="path94" />
  <path
     d="M478.711 166.353c-10.445-25.124-31.6-52.248-48.212-60.821 13.52 26.505 21.345 53.093 24.335 72.936 0-.058.011.048.036.226.012.085.027.174.04.259 22.675 61.47 10.322 123.978-7.479 162.175-27.539 59.1-94.215 119.67-198.576 116.716C136.1 454.651 36.766 370.988 18.223 261.41c-3.379-17.28 0-26.054 1.7-40.084-2.071 10.816-2.86 13.94-3.9 33.157 0 .41-.025.816-.025 1.227C16 388.418 123.6 496 256.324 496c118.865 0 217.56-86.288 236.882-199.63.407-3.076.733-6.168 1.092-9.271 4.777-41.21-.53-84.525-15.587-120.746z"
     fill="url(#b)"
     id="path96" />
  <path
     d="M478.711 166.353c-10.445-25.124-31.6-52.248-48.212-60.821 13.52 26.505 21.345 53.093 24.335 72.936 0-.058.011.048.036.226.012.085.027.174.04.259 22.675 61.47 10.322 123.978-7.479 162.175-27.539 59.1-94.215 119.67-198.576 116.716C136.1 454.651 36.766 370.988 18.223 261.41c-3.379-17.28 0-26.054 1.7-40.084-2.071 10.816-2.86 13.94-3.9 33.157 0 .41-.025.816-.025 1.227C16 388.418 123.6 496 256.324 496c118.865 0 217.56-86.288 236.882-199.63.407-3.076.733-6.168 1.092-9.271 4.777-41.21-.53-84.525-15.587-120.746z"
     fill="url(#c)"
     id="path98" />
  <path
     d="M361.922 194.6c.524.368 1 .734 1.493 1.1a130.706 130.706 0 00-22.31-29.112C266.4 91.892 321.516 4.626 330.811.194c.027-.036.083-.117.1-.136-60.37 35.356-80.85 100.761-82.732 133.484 2.8-.194 5.592-.429 8.442-.429 45.051 0 84.289 24.77 105.301 61.487z"
     fill="url(#d)"
     id="path100" />
  <path
     d="M256.772 209.514c-.393 5.978-21.514 26.593-28.9 26.593-68.339 0-79.432 41.335-79.432 41.335 3.027 34.81 27.261 63.475 56.611 78.643 1.339.692 2.694 1.317 4.05 1.935a132.768 132.768 0 007.059 2.886 106.743 106.743 0 0031.271 6.031c119.78 5.618 142.986-143.194 56.545-186.408 22.137-3.85 45.115 5.053 57.947 14.067-21.012-36.714-60.25-61.484-105.3-61.484-2.85 0-5.641.235-8.442.429a120.249 120.249 0 00-66.142 25.488c3.664 3.1 7.8 7.244 16.514 15.828 16.302 16.067 58.13 32.705 58.219 34.657z"
     fill="url(#e)"
     id="path102" />
  <path
     d="M256.772 209.514c-.393 5.978-21.514 26.593-28.9 26.593-68.339 0-79.432 41.335-79.432 41.335 3.027 34.81 27.261 63.475 56.611 78.643 1.339.692 2.694 1.317 4.05 1.935a132.768 132.768 0 007.059 2.886 106.743 106.743 0 0031.271 6.031c119.78 5.618 142.986-143.194 56.545-186.408 22.137-3.85 45.115 5.053 57.947 14.067-21.012-36.714-60.25-61.484-105.3-61.484-2.85 0-5.641.235-8.442.429a120.249 120.249 0 00-66.142 25.488c3.664 3.1 7.8 7.244 16.514 15.828 16.302 16.067 58.13 32.705 58.219 34.657z"
     fill="url(#f)"
     id="path104" />
  <g
     id="layer1"
     style="display:inline"
     transform="matrix(0.35419593,0,0,0.35419593,167.60978,158.9271)">
    <path
       style="fill:#010101"
       d="m 153,239 c -19.29628,10.1068 -35.89784,24.78369 -54.333641,36.46885 -9.746032,8.32066 -25.277462,12.6214 -28.707379,25.98943 10.307056,22.92658 37.56405,33.92848 53.60479,53.08074 23.28522,14.7741 12.39789,37.31214 10.86684,58.46127 -0.65103,19.79563 8.02486,38.22515 19.44408,53.8183 0.0876,13.91995 -31.90349,35.02457 -3.14719,41.12766 31.75568,-0.39587 63.54008,1.13262 95.2725,-0.006 19.25207,-6.5808 41.00426,2.46436 61.81371,-2.43182 23.28106,-1.22258 46.77912,-0.32628 69.92832,-2.57693 22.92231,-15.46076 -28.07351,-30.89777 -1.26144,-46.86781 C 390.50498,438.79689 387.18786,414.04679 382,394 c 17.87423,-14.93999 18.5116,-36.42509 19.87065,-57.42594 5.25206,-19.86251 14.03525,-38.69618 19.17732,-58.49812 -3.84842,-24.03985 -39.1751,-41.31194 -45.80958,-57.14885 17.78713,-29.29972 26.64951,-64.27647 19.59993,-98.29411 C 387.51638,67.544167 342.67824,21.758539 288.8189,10.337029 228.41755,-5.1087959 160.44586,26.883691 133.17057,82.782337 117.33803,113.72488 115.2685,151.24585 123.55952,184.65614 129.00838,205.07414 140.38108,222.47691 153,239 Z"
       id="path1" />
    <path
       style="fill:#ffff01"
       d="m 180,329 18,8 c 9.24,-17.53 14.78,-38.36 21.56,-57 2.31,-6.35 3.57,-17.15 9.57,-21.24 4.73,-3.22 14.51,-0.44 19.87,0.07 10.84,1.03 23.37,0.68 34,-1.72 C 335.22,245.34 372.71,199.28 374.96,146 378.07,72.236 305.3,13.58 234,29.02 c -43.93,9.507 -76.57,43.459 -88.57,85.985 -10.53,37.33 1.89,78.48 27.37,106.83 6.71,7.46 14.87,14.11 23.29,19.57 3.73,2.42 9.79,4.83 10.96,9.62 1.32,5.42 -4.33,13.76 -5.85,18.98 -5.82,19.96 -16.4,38.78 -21.2,59 z"
       id="path2" />
    <path
       style="fill:#ce61a9"
       d="m 237,270 c -8.48,15.92 -15.41,36.57 -20.08,54 -1.36,5.06 -6.23,11.67 -4.89,17 3.2,12.76 17.13,22.54 28.97,25.62 22.34,5.83 48.15,7.53 70,-1.07 3.88,-1.53 9.74,-2.89 11.97,-6.74 2.07,-3.57 0.82,-8.86 1.2,-12.81 0.99,-10.2 6.53,-18.52 16.83,-21 0.01,-9.11 1.67,-18.72 8.46,-25.47 3.91,-3.89 10.2,-6.15 14.14,-1.19 9.75,12.3 -3.7,27.68 12.4,36.66 13.76,-29.42 26.34,-75.12 -15,-88.74 -5.23,-1.73 -11.36,-4.63 -17,-4.08 -10.25,1.01 -22.68,14.27 -32.42,18.73 -22.23,10.18 -50.54,14.88 -74.58,9.09 z"
       id="path3" />
    <path
       style="fill:#ce61a9"
       d="m 137,338 c 3.18,-4.17 6.58,-7.19 11,-10 -1.97,-3.92 -6.68,-6.5 -7.46,-11 -1.64,-9.41 12.19,-20.93 20.46,-21.82 4.38,-0.48 12.3,5.08 15.49,2.99 2.51,-1.64 3.42,-6.55 4.51,-9.17 3.1,-7.51 12.87,-25.96 7.97,-33.72 -2.47285,-3.92245 -7.70872,-3.82217 -13.38023,-2.14588 -7.63086,2.25541 -16.05037,7.36385 -19.58977,9.36588 -13.64,7.73 -26.48,17.21 -39,26.63 -3.86,2.9 -12.34,8.01 -13.48,13 -1.24,5.43 2.89,10.17 6.2,13.83 7.67,8.5 17.17,16.64 27.28,22.04 z"
       id="path4" />
    <path
       style="fill:#9fc79f"
       d="m 157,384 c 0,13.94 -0.51,25.95 5.22,39 4.77,10.86 10.96,21.1 18.95,30 6.92,7.7 14.83,8.96 24.83,9 17.21,0.08 33.73,-6.21 42.48,-22 11.07,-19.97 3.58,-55.02 -21.52,-61.31 -7.81,-1.95 -23.68,6.35 -31.96,8.1 -13.65,2.89 -24.79,-0.54 -38,-2.79 z"
       id="path5" />
    <path
       style="fill:#95bb95"
       d="m 357,385 c -17.01,3.2 -27.07,2.97 -31,-16 -11.91,1.56 -23.62,7.8 -36,9.57 -4.1,0.59 -11.08,-0.98 -14.3,2.03 -5.1,4.77 -5.44,14.02 -5.74,20.4 -0.22,4.66 -2.39,9.33 -1.6,14 1.72,10.26 13.38,21.18 19.74,29 4.59,5.66 10.59,14.3 17.9,16.49 8.24,2.46 16.55,-4.65 23,-8.83 9.21,-5.99 19.98,-13.42 24.98,-23.66 2.33,-4.78 0.91,-11.82 1.04,-17 0.21,-8.7 1.98,-17.26 1.98,-26 z"
       id="path6" />
    <path
       style="fill:#fbb5a7"
       d="m 344.04,338.74 c -8.51,3.44 -8.51,27.18 -1.48,32.23 3.87,2.78 17.29,-0.65 21.44,-2.32 23.49,-9.46 -4.63,-36.1 -19.96,-29.91 z"
       id="path7" />
    <path
       style="fill:#fbb5a7"
       d="m 201,365 c -6.76,-9.02 -21.93,-17.44 -33,-19.53 -4.52,-0.85 -12.18,-1.71 -14.24,3.59 -2.56,6.57 3.94,13.06 9.24,15.61 11.8,5.69 25.9,4.17 38,0.33 z"
       id="path8" />
    <path
       style="fill:#576e57"
       d="m 365,406 c -0.86,6.78 1.35,18.22 -1.49,24.2 -7.25,15.25 -24.45,25.44 -38.51,33.66 -6.58,3.84 -13.19,7.73 -21,5.03 -16.77,-5.8 -20.94,-25.76 -35,-33.89 0,8.86 0.3,16.69 3.74,25 17.58,42.43 71.5,11.84 89.46,-14 7.43,-10.69 13.35,-29.47 2.8,-40"
       id="path9" />
    <path
       style="fill:#576e57"
       d="m 155,432 c 2.63,10.96 11.11,20.8 17.28,30.04 2.17,3.23 4.52,8.56 8.1,10.4 4.57,2.35 11.58,2.11 16.62,2.72 15.31,1.83 33.26,2.59 48,-2.5 5.63,-1.95 11.75,-4.02 14.68,-9.66 2.98,-5.74 -0.56,-14.03 -1.68,-20 -5.56,5.92 -9.39,12.43 -16,17.54 -14.23,10.98 -43.14,17.76 -59,6.03 -12.43,-9.19 -17.42,-24.31 -28,-34.57"
       id="path10" />
    <path
       style="fill:#010101"
       d="m 203,78.432 c -41.94,5.523 -52.25,62.648 -12,79.888 7.45,3.19 18.11,2.68 26,1.47 48.64,-7.5 34.78,-87.781 -14,-81.358 z"
       id="path11" />
    <path
       style="fill:#ffffff"
       d="m 196,147 c -1.86,-8.13 -2.94,-15.07 3.38,-21.79 10.5,-11.16 28.74,-3.58 30.62,10.79 9.52,-9.43 5.95,-29.23 -3.17,-37.74 -12.58,-11.724 -31.99,-10.389 -42.89,2.76 -3.76,4.52 -5.37,9.22 -6.17,14.98 -0.77,5.56 0.25,11.88 2.58,17 3.12,6.83 8.9,11.17 15.65,14 z"
       id="path12" />
    <path
       style="fill:#010101"
       d="m 299,75.518 c -52.42,11.12 -36.2,92.762 16,81.662 52.67,-11.2 36.32,-92.76 -16,-81.662 z"
       id="path13" />
    <path
       style="fill:#ffffff"
       d="m 283,134 c 2.92303,-6.34588 4.80429,-9.36607 10.18,-11.66 15.75,-7.07 24.49,8.35 22.82,21.66 38.8,-11.2 14.11,-71.907 -22,-53.85 -4.34,2.168 -8.17,5.944 -10.96,9.85 -3.18,4.48 -5.24,9.49 -5.71,15 -0.59,6.86 2.59,13.13 5.67,19 z"
       id="path14" />
  </g>
  <path
     d="M170.829 151.036a244.042 244.042 0 014.981 3.3 111.338 111.338 0 01-.674-58.732c-24.688 11.241-43.89 29.01-57.85 44.7 1.155-.033 36.014-.66 53.543 10.732z"
     fill="url(#g)"
     id="path106" />
  <path
     d="M18.223 261.41C36.766 370.988 136.1 454.651 248.855 457.844c104.361 2.954 171.037-57.62 198.576-116.716 17.8-38.2 30.154-100.7 7.479-162.175l-.008-.026-.032-.233c-.025-.178-.04-.284-.036-.226 0 .039.015.136.047.4 8.524 55.661-19.79 109.584-64.051 146.044l-.133.313c-86.245 70.223-168.774 42.368-185.484 30.966a144.108 144.108 0 01-3.5-1.743c-50.282-24.029-71.054-69.838-66.6-109.124-42.457 0-56.934-35.809-56.934-35.809s38.119-27.179 88.358-3.541c46.53 21.893 90.228 3.543 90.233 3.541-.089-1.952-41.917-18.59-58.223-34.656-8.713-8.584-12.85-12.723-16.514-15.828a71.355 71.355 0 00-6.225-4.7 282.929 282.929 0 00-4.981-3.3c-17.528-11.392-52.388-10.765-53.543-10.735h-.111c-9.527-12.067-8.855-51.873-8.312-60.184-.114-.515-7.107 3.63-8.023 4.255a175.073 175.073 0 00-23.486 20.12 210.478 210.478 0 00-22.442 26.919c0 .012-.007.026-.011.038 0-.013.007-.026.011-.038a202.838 202.838 0 00-32.247 72.805c-.115.521-8.65 37.842-4.44 57.199z"
     fill="url(#h)"
     id="path108" />
  <path
     d="M341.105 166.587a130.706 130.706 0 0122.31 29.112c1.323.994 2.559 1.985 3.608 2.952 54.482 50.2 25.936 121.2 23.807 126.26 44.261-36.46 72.575-90.383 64.051-146.044C427.706 111.135 381.627 83.823 344 24.355c-1.9-3.007-3.805-6.022-5.661-9.2a73.716 73.716 0 01-2.646-4.972A43.7 43.7 0 01332.1.677a.626.626 0 00-.546-.644.818.818 0 00-.451 0c-.034.012-.084.051-.12.065-.053.021-.12.069-.176.1-9.291 4.428-64.407 91.694 10.298 166.389z"
     fill="url(#i)"
     id="path110" />
  <path
     d="M367.023 198.651c-1.049-.967-2.285-1.958-3.608-2.952-.489-.368-.969-.734-1.493-1.1-12.832-9.014-35.81-17.917-57.947-14.067 86.441 43.214 63.235 192.026-56.545 186.408a106.743 106.743 0 01-31.271-6.031 134.51 134.51 0 01-7.059-2.886c-1.356-.618-2.711-1.243-4.05-1.935.048.033.114.07.163.1 16.71 11.4 99.239 39.257 185.484-30.966l.133-.313c2.129-5.054 30.675-76.057-23.807-126.258z"
     fill="url(#j)"
     id="path112" />
  <path
     d="M148.439 277.443s11.093-41.335 79.432-41.335c7.388 0 28.509-20.615 28.9-26.593s-43.7 18.352-90.233-3.541c-50.239-23.638-88.358 3.541-88.358 3.541s14.477 35.809 56.934 35.809c-4.453 39.286 16.319 85.1 66.6 109.124 1.124.537 2.18 1.124 3.334 1.639-29.348-15.169-53.582-43.834-56.609-78.644z"
     fill="url(#k)"
     id="path114" />
  <path
     d="M478.711 166.353c-10.445-25.124-31.6-52.248-48.212-60.821 13.52 26.505 21.345 53.093 24.335 72.936 0 .039.015.136.047.4C427.706 111.135 381.627 83.823 344 24.355c-1.9-3.007-3.805-6.022-5.661-9.2a73.716 73.716 0 01-2.646-4.972A43.7 43.7 0 01332.1.677a.626.626 0 00-.546-.644.818.818 0 00-.451 0c-.034.012-.084.051-.12.065-.053.021-.12.069-.176.1.027-.036.083-.117.1-.136-60.37 35.356-80.85 100.761-82.732 133.484 2.8-.194 5.592-.429 8.442-.429 45.053 0 84.291 24.77 105.3 61.484-12.832-9.014-35.81-17.917-57.947-14.067 86.441 43.214 63.235 192.026-56.545 186.408a106.743 106.743 0 01-31.271-6.031 134.51 134.51 0 01-7.059-2.886c-1.356-.618-2.711-1.243-4.05-1.935.048.033.114.07.163.1a144.108 144.108 0 01-3.5-1.743c1.124.537 2.18 1.124 3.334 1.639-29.35-15.168-53.584-43.833-56.611-78.643 0 0 11.093-41.335 79.432-41.335 7.388 0 28.509-20.615 28.9-26.593-.089-1.952-41.917-18.59-58.223-34.656-8.713-8.584-12.85-12.723-16.514-15.828a71.355 71.355 0 00-6.225-4.7 111.338 111.338 0 01-.674-58.732c-24.688 11.241-43.89 29.01-57.85 44.7h-.111c-9.527-12.067-8.855-51.873-8.312-60.184-.114-.515-7.107 3.63-8.023 4.255a175.073 175.073 0 00-23.486 20.12 210.478 210.478 0 00-22.435 26.916c0 .012-.007.026-.011.038 0-.013.007-.026.011-.038a202.838 202.838 0 00-32.247 72.805c-.115.521-.212 1.061-.324 1.586-.452 2.116-2.486 12.853-2.77 15.156-.022.177.021-.176 0 0a279.565 279.565 0 00-3.544 33.53c0 .41-.025.816-.025 1.227C16 388.418 123.6 496 256.324 496c118.865 0 217.56-86.288 236.882-199.63.407-3.076.733-6.168 1.092-9.271 4.777-41.21-.53-84.525-15.587-120.746zm-23.841 12.341c.012.085.027.174.04.259l-.008-.026-.032-.233z"
     fill="url(#l)"
     id="path116" />
</svg>
